<mxfile host="app.diagrams.net" modified="2022-11-14T09:36:24.422Z" agent="5.0 (X11; Linux x86_64) AppleWebKit/537.36 (KHTML, like Gecko) Chrome/107.0.0.0 Safari/537.36" etag="WZkxfVFSIXnnKaryX8PM" version="20.5.3" type="github">
  <diagram id="9AL0e-qM06q9D_0BJLEs" name="Page-1">
    <mxGraphModel dx="1125" dy="693" grid="1" gridSize="5" guides="1" tooltips="1" connect="1" arrows="1" fold="1" page="1" pageScale="1" pageWidth="1169" pageHeight="827" math="0" shadow="0">
      <root>
        <mxCell id="0" />
        <mxCell id="1" parent="0" />
        <mxCell id="PSsWQGHh_uAdmonaR9B--15" value="VPC" style="points=[[0,0],[0.25,0],[0.5,0],[0.75,0],[1,0],[1,0.25],[1,0.5],[1,0.75],[1,1],[0.75,1],[0.5,1],[0.25,1],[0,1],[0,0.75],[0,0.5],[0,0.25]];outlineConnect=0;gradientColor=none;html=1;whiteSpace=wrap;fontSize=12;fontStyle=0;container=1;pointerEvents=0;collapsible=0;recursiveResize=0;shape=mxgraph.aws4.group;grIcon=mxgraph.aws4.group_vpc;strokeColor=#248814;fillColor=none;verticalAlign=top;align=left;spacingLeft=30;fontColor=#AAB7B8;dashed=0;" vertex="1" parent="1">
          <mxGeometry x="20" y="280" width="560" height="500" as="geometry" />
        </mxCell>
        <mxCell id="PSsWQGHh_uAdmonaR9B--17" value="Region" style="points=[[0,0],[0.25,0],[0.5,0],[0.75,0],[1,0],[1,0.25],[1,0.5],[1,0.75],[1,1],[0.75,1],[0.5,1],[0.25,1],[0,1],[0,0.75],[0,0.5],[0,0.25]];outlineConnect=0;gradientColor=none;html=1;whiteSpace=wrap;fontSize=12;fontStyle=0;container=1;pointerEvents=0;collapsible=0;recursiveResize=0;shape=mxgraph.aws4.group;grIcon=mxgraph.aws4.group_region;strokeColor=#147EBA;fillColor=none;verticalAlign=top;align=left;spacingLeft=30;fontColor=#147EBA;dashed=1;" vertex="1" parent="PSsWQGHh_uAdmonaR9B--15">
          <mxGeometry x="20" y="40" width="520" height="440" as="geometry" />
        </mxCell>
        <mxCell id="PSsWQGHh_uAdmonaR9B--19" value="eu-west-2" style="text;html=1;resizable=0;autosize=1;align=center;verticalAlign=middle;points=[];fillColor=none;strokeColor=none;rounded=0;" vertex="1" parent="PSsWQGHh_uAdmonaR9B--17">
          <mxGeometry x="40" y="30" width="75" height="30" as="geometry" />
        </mxCell>
        <mxCell id="PSsWQGHh_uAdmonaR9B--22" value="Availability Zone" style="fillColor=none;strokeColor=#147EBA;dashed=1;verticalAlign=top;fontStyle=0;fontColor=#147EBA;" vertex="1" parent="PSsWQGHh_uAdmonaR9B--17">
          <mxGeometry x="20" y="60" width="480" height="360" as="geometry" />
        </mxCell>
        <mxCell id="PSsWQGHh_uAdmonaR9B--24" value="Public subnet" style="points=[[0,0],[0.25,0],[0.5,0],[0.75,0],[1,0],[1,0.25],[1,0.5],[1,0.75],[1,1],[0.75,1],[0.5,1],[0.25,1],[0,1],[0,0.75],[0,0.5],[0,0.25]];outlineConnect=0;gradientColor=none;html=1;whiteSpace=wrap;fontSize=12;fontStyle=0;container=1;pointerEvents=0;collapsible=0;recursiveResize=0;shape=mxgraph.aws4.group;grIcon=mxgraph.aws4.group_security_group;grStroke=0;strokeColor=#248814;fillColor=#E9F3E6;verticalAlign=top;align=left;spacingLeft=30;fontColor=#248814;dashed=0;" vertex="1" parent="PSsWQGHh_uAdmonaR9B--17">
          <mxGeometry x="40" y="100" width="440" height="140" as="geometry" />
        </mxCell>
        <mxCell id="PSsWQGHh_uAdmonaR9B--29" value="" style="sketch=0;points=[[0,0,0],[0.25,0,0],[0.5,0,0],[0.75,0,0],[1,0,0],[0,1,0],[0.25,1,0],[0.5,1,0],[0.75,1,0],[1,1,0],[0,0.25,0],[0,0.5,0],[0,0.75,0],[1,0.25,0],[1,0.5,0],[1,0.75,0]];outlineConnect=0;fontColor=#232F3E;gradientColor=#F78E04;gradientDirection=north;fillColor=#D05C17;strokeColor=#ffffff;dashed=0;verticalLabelPosition=bottom;verticalAlign=top;align=center;html=1;fontSize=12;fontStyle=0;aspect=fixed;shape=mxgraph.aws4.resourceIcon;resIcon=mxgraph.aws4.ec2;" vertex="1" parent="PSsWQGHh_uAdmonaR9B--24">
          <mxGeometry x="175" y="20" width="78" height="78" as="geometry" />
        </mxCell>
        <mxCell id="PSsWQGHh_uAdmonaR9B--26" value="Private subnet" style="points=[[0,0],[0.25,0],[0.5,0],[0.75,0],[1,0],[1,0.25],[1,0.5],[1,0.75],[1,1],[0.75,1],[0.5,1],[0.25,1],[0,1],[0,0.75],[0,0.5],[0,0.25]];outlineConnect=0;gradientColor=none;html=1;whiteSpace=wrap;fontSize=12;fontStyle=0;container=1;pointerEvents=0;collapsible=0;recursiveResize=0;shape=mxgraph.aws4.group;grIcon=mxgraph.aws4.group_security_group;grStroke=0;strokeColor=#147EBA;fillColor=#E6F2F8;verticalAlign=top;align=left;spacingLeft=30;fontColor=#147EBA;dashed=0;" vertex="1" parent="PSsWQGHh_uAdmonaR9B--17">
          <mxGeometry x="40" y="260" width="440" height="130" as="geometry" />
        </mxCell>
        <mxCell id="PSsWQGHh_uAdmonaR9B--31" value="" style="sketch=0;points=[[0,0,0],[0.25,0,0],[0.5,0,0],[0.75,0,0],[1,0,0],[0,1,0],[0.25,1,0],[0.5,1,0],[0.75,1,0],[1,1,0],[0,0.25,0],[0,0.5,0],[0,0.75,0],[1,0.25,0],[1,0.5,0],[1,0.75,0]];outlineConnect=0;fontColor=#232F3E;gradientColor=#4D72F3;gradientDirection=north;fillColor=#3334B9;strokeColor=#ffffff;dashed=0;verticalLabelPosition=bottom;verticalAlign=top;align=center;html=1;fontSize=12;fontStyle=0;aspect=fixed;shape=mxgraph.aws4.resourceIcon;resIcon=mxgraph.aws4.rds;" vertex="1" parent="PSsWQGHh_uAdmonaR9B--26">
          <mxGeometry x="181" y="26" width="78" height="78" as="geometry" />
        </mxCell>
        <mxCell id="PSsWQGHh_uAdmonaR9B--47" value="" style="endArrow=none;dashed=1;html=1;rounded=0;" edge="1" parent="PSsWQGHh_uAdmonaR9B--26">
          <mxGeometry width="50" height="50" relative="1" as="geometry">
            <mxPoint x="200" y="25" as="sourcePoint" />
            <mxPoint x="200" y="-62" as="targetPoint" />
          </mxGeometry>
        </mxCell>
        <mxCell id="PSsWQGHh_uAdmonaR9B--48" value="" style="endArrow=none;dashed=1;html=1;rounded=0;entryX=0.827;entryY=0.993;entryDx=0;entryDy=0;entryPerimeter=0;exitX=0.75;exitY=0;exitDx=0;exitDy=0;exitPerimeter=0;" edge="1" parent="PSsWQGHh_uAdmonaR9B--17" source="PSsWQGHh_uAdmonaR9B--31" target="PSsWQGHh_uAdmonaR9B--29">
          <mxGeometry width="50" height="50" relative="1" as="geometry">
            <mxPoint x="270" y="286" as="sourcePoint" />
            <mxPoint x="270" y="206" as="targetPoint" />
          </mxGeometry>
        </mxCell>
        <mxCell id="PSsWQGHh_uAdmonaR9B--16" value="VPC" style="points=[[0,0],[0.25,0],[0.5,0],[0.75,0],[1,0],[1,0.25],[1,0.5],[1,0.75],[1,1],[0.75,1],[0.5,1],[0.25,1],[0,1],[0,0.75],[0,0.5],[0,0.25]];outlineConnect=0;gradientColor=none;html=1;whiteSpace=wrap;fontSize=12;fontStyle=0;container=1;pointerEvents=0;collapsible=0;recursiveResize=0;shape=mxgraph.aws4.group;grIcon=mxgraph.aws4.group_vpc;strokeColor=#248814;fillColor=none;verticalAlign=top;align=left;spacingLeft=30;fontColor=#AAB7B8;dashed=0;" vertex="1" parent="1">
          <mxGeometry x="600" y="280" width="560" height="500" as="geometry" />
        </mxCell>
        <mxCell id="PSsWQGHh_uAdmonaR9B--18" value="Region" style="points=[[0,0],[0.25,0],[0.5,0],[0.75,0],[1,0],[1,0.25],[1,0.5],[1,0.75],[1,1],[0.75,1],[0.5,1],[0.25,1],[0,1],[0,0.75],[0,0.5],[0,0.25]];outlineConnect=0;gradientColor=none;html=1;whiteSpace=wrap;fontSize=12;fontStyle=0;container=1;pointerEvents=0;collapsible=0;recursiveResize=0;shape=mxgraph.aws4.group;grIcon=mxgraph.aws4.group_region;strokeColor=#147EBA;fillColor=none;verticalAlign=top;align=left;spacingLeft=30;fontColor=#147EBA;dashed=1;" vertex="1" parent="PSsWQGHh_uAdmonaR9B--16">
          <mxGeometry x="20" y="40" width="520" height="440" as="geometry" />
        </mxCell>
        <mxCell id="PSsWQGHh_uAdmonaR9B--21" value="me-central-1" style="text;html=1;resizable=0;autosize=1;align=center;verticalAlign=middle;points=[];fillColor=none;strokeColor=none;rounded=0;" vertex="1" parent="PSsWQGHh_uAdmonaR9B--18">
          <mxGeometry x="40" y="30" width="90" height="30" as="geometry" />
        </mxCell>
        <mxCell id="PSsWQGHh_uAdmonaR9B--23" value="Availability Zone" style="fillColor=none;strokeColor=#147EBA;dashed=1;verticalAlign=top;fontStyle=0;fontColor=#147EBA;" vertex="1" parent="PSsWQGHh_uAdmonaR9B--18">
          <mxGeometry x="20" y="60" width="480" height="360" as="geometry" />
        </mxCell>
        <mxCell id="PSsWQGHh_uAdmonaR9B--25" value="Public subnet" style="points=[[0,0],[0.25,0],[0.5,0],[0.75,0],[1,0],[1,0.25],[1,0.5],[1,0.75],[1,1],[0.75,1],[0.5,1],[0.25,1],[0,1],[0,0.75],[0,0.5],[0,0.25]];outlineConnect=0;gradientColor=none;html=1;whiteSpace=wrap;fontSize=12;fontStyle=0;container=1;pointerEvents=0;collapsible=0;recursiveResize=0;shape=mxgraph.aws4.group;grIcon=mxgraph.aws4.group_security_group;grStroke=0;strokeColor=#248814;fillColor=#E9F3E6;verticalAlign=top;align=left;spacingLeft=30;fontColor=#248814;dashed=0;" vertex="1" parent="PSsWQGHh_uAdmonaR9B--18">
          <mxGeometry x="40" y="100" width="440" height="140" as="geometry" />
        </mxCell>
        <mxCell id="PSsWQGHh_uAdmonaR9B--30" value="" style="sketch=0;points=[[0,0,0],[0.25,0,0],[0.5,0,0],[0.75,0,0],[1,0,0],[0,1,0],[0.25,1,0],[0.5,1,0],[0.75,1,0],[1,1,0],[0,0.25,0],[0,0.5,0],[0,0.75,0],[1,0.25,0],[1,0.5,0],[1,0.75,0]];outlineConnect=0;fontColor=#232F3E;gradientColor=#F78E04;gradientDirection=north;fillColor=#D05C17;strokeColor=#ffffff;dashed=0;verticalLabelPosition=bottom;verticalAlign=top;align=center;html=1;fontSize=12;fontStyle=0;aspect=fixed;shape=mxgraph.aws4.resourceIcon;resIcon=mxgraph.aws4.ec2;" vertex="1" parent="PSsWQGHh_uAdmonaR9B--18">
          <mxGeometry x="225" y="120" width="78" height="78" as="geometry" />
        </mxCell>
        <mxCell id="PSsWQGHh_uAdmonaR9B--28" value="" style="sketch=0;points=[[0,0,0],[0.25,0,0],[0.5,0,0],[0.75,0,0],[1,0,0],[0,1,0],[0.25,1,0],[0.5,1,0],[0.75,1,0],[1,1,0],[0,0.25,0],[0,0.5,0],[0,0.75,0],[1,0.25,0],[1,0.5,0],[1,0.75,0]];outlineConnect=0;fontColor=#232F3E;gradientColor=#945DF2;gradientDirection=north;fillColor=#5A30B5;strokeColor=#ffffff;dashed=0;verticalLabelPosition=bottom;verticalAlign=top;align=center;html=1;fontSize=12;fontStyle=0;aspect=fixed;shape=mxgraph.aws4.resourceIcon;resIcon=mxgraph.aws4.route_53;" vertex="1" parent="1">
          <mxGeometry x="546" y="25" width="78" height="78" as="geometry" />
        </mxCell>
        <mxCell id="PSsWQGHh_uAdmonaR9B--33" value="" style="endArrow=none;dashed=1;html=1;rounded=0;entryX=0.5;entryY=1;entryDx=0;entryDy=0;entryPerimeter=0;" edge="1" parent="1" target="PSsWQGHh_uAdmonaR9B--28">
          <mxGeometry width="50" height="50" relative="1" as="geometry">
            <mxPoint x="585" y="200" as="sourcePoint" />
            <mxPoint x="610" y="105" as="targetPoint" />
          </mxGeometry>
        </mxCell>
        <mxCell id="PSsWQGHh_uAdmonaR9B--36" value="" style="endArrow=none;dashed=1;html=1;rounded=0;" edge="1" parent="1">
          <mxGeometry width="50" height="50" relative="1" as="geometry">
            <mxPoint x="295" y="200" as="sourcePoint" />
            <mxPoint x="880" y="200" as="targetPoint" />
          </mxGeometry>
        </mxCell>
        <mxCell id="PSsWQGHh_uAdmonaR9B--42" value="" style="endArrow=none;dashed=1;html=1;rounded=0;" edge="1" parent="1" source="PSsWQGHh_uAdmonaR9B--29">
          <mxGeometry width="50" height="50" relative="1" as="geometry">
            <mxPoint x="265" y="270" as="sourcePoint" />
            <mxPoint x="294" y="200" as="targetPoint" />
          </mxGeometry>
        </mxCell>
        <mxCell id="PSsWQGHh_uAdmonaR9B--44" value="" style="endArrow=none;dashed=1;html=1;rounded=0;" edge="1" parent="1">
          <mxGeometry width="50" height="50" relative="1" as="geometry">
            <mxPoint x="880" y="440" as="sourcePoint" />
            <mxPoint x="880" y="200" as="targetPoint" />
          </mxGeometry>
        </mxCell>
        <mxCell id="PSsWQGHh_uAdmonaR9B--49" value="" style="endArrow=none;dashed=1;html=1;rounded=0;entryX=0.25;entryY=1;entryDx=0;entryDy=0;entryPerimeter=0;exitX=1;exitY=0.25;exitDx=0;exitDy=0;exitPerimeter=0;" edge="1" parent="1" source="PSsWQGHh_uAdmonaR9B--31" target="PSsWQGHh_uAdmonaR9B--30">
          <mxGeometry width="50" height="50" relative="1" as="geometry">
            <mxPoint x="530" y="965" as="sourcePoint" />
            <mxPoint x="580" y="915" as="targetPoint" />
          </mxGeometry>
        </mxCell>
        <mxCell id="PSsWQGHh_uAdmonaR9B--50" value="" style="endArrow=none;dashed=1;html=1;rounded=0;entryX=0.75;entryY=1;entryDx=0;entryDy=0;entryPerimeter=0;exitX=1;exitY=0.75;exitDx=0;exitDy=0;exitPerimeter=0;" edge="1" parent="1" source="PSsWQGHh_uAdmonaR9B--31" target="PSsWQGHh_uAdmonaR9B--30">
          <mxGeometry width="50" height="50" relative="1" as="geometry">
            <mxPoint x="800" y="665" as="sourcePoint" />
            <mxPoint x="850" y="615" as="targetPoint" />
          </mxGeometry>
        </mxCell>
      </root>
    </mxGraphModel>
  </diagram>
</mxfile>
